<?xml version="1.0" encoding="UTF-8" standalone="no"?><svg xmlns="http://www.w3.org/2000/svg" xmlns:xlink="http://www.w3.org/1999/xlink" contentScriptType="application/ecmascript" contentStyleType="text/css" height="562px" preserveAspectRatio="none" style="width:286px;height:562px;" version="1.1" viewBox="0 0 286 562" width="286px" zoomAndPan="magnify"><defs><filter height="300%" id="fyp0hg1" width="300%" x="-1" y="-1"><feGaussianBlur result="blurOut" stdDeviation="2.0"/><feColorMatrix in="blurOut" result="blurOut2" type="matrix" values="0 0 0 0 0 0 0 0 0 0 0 0 0 0 0 0 0 0 .4 0"/><feOffset dx="4.0" dy="4.0" in="blurOut2" result="blurOut3"/><feBlend in="SourceGraphic" in2="blurOut3" mode="normal"/></filter></defs><g><ellipse cx="152" cy="18" fill="#000000" filter="url(#fyp0hg1)" rx="10" ry="10" style="stroke: none; stroke-width: 1.0;"/><rect fill="#F8F8F8" filter="url(#fyp0hg1)" height="33.9688" rx="12.5" ry="12.5" style="stroke: #383838; stroke-width: 1.5;" width="28" x="138" y="70"/><text fill="#000000" font-family="sans-serif" font-size="12" lengthAdjust="spacingAndGlyphs" textLength="8" x="148" y="91.1387">0</text><rect fill="#F8F8F8" filter="url(#fyp0hg1)" height="33.9688" rx="12.5" ry="12.5" style="stroke: #383838; stroke-width: 1.5;" width="28" x="6" y="160"/><text fill="#000000" font-family="sans-serif" font-size="12" lengthAdjust="spacingAndGlyphs" textLength="8" x="16" y="181.1387">1</text><rect fill="#F8F8F8" filter="url(#fyp0hg1)" height="33.9688" rx="12.5" ry="12.5" style="stroke: #383838; stroke-width: 1.5;" width="28" x="90" y="250"/><text fill="#000000" font-family="sans-serif" font-size="12" lengthAdjust="spacingAndGlyphs" textLength="8" x="100" y="271.1387">2</text><rect fill="#F8F8F8" filter="url(#fyp0hg1)" height="33.9688" rx="12.5" ry="12.5" style="stroke: #383838; stroke-width: 1.5;" width="28" x="61" y="340"/><text fill="#000000" font-family="sans-serif" font-size="12" lengthAdjust="spacingAndGlyphs" textLength="8" x="71" y="361.1387">3</text><rect fill="#F8F8F8" filter="url(#fyp0hg1)" height="33.9688" rx="12.5" ry="12.5" style="stroke: #383838; stroke-width: 1.5;" width="28" x="112" y="430"/><text fill="#000000" font-family="sans-serif" font-size="12" lengthAdjust="spacingAndGlyphs" textLength="8" x="122" y="451.1387">4</text><rect fill="#F8F8F8" filter="url(#fyp0hg1)" height="33.9688" rx="12.5" ry="12.5" style="stroke: #383838; stroke-width: 1.5;" width="28" x="192" y="520"/><text fill="#000000" font-family="sans-serif" font-size="12" lengthAdjust="spacingAndGlyphs" textLength="8" x="202" y="541.1387">5</text><path d="M152,28.036 C152,37.412 152,52.41 152,64.801 " fill="none" style="stroke: #383838; stroke-width: 1.0;"/><polygon fill="#383838" points="152,69.928,156,60.928,152,64.928,148,60.928,152,69.928" style="stroke: #383838; stroke-width: 1.0;"/><path d="M166.324,80.571 C176.238,78.623 186,80.766 186,87 C186,92.163 179.306,94.52 171.374,94.071 " fill="none" style="stroke: #383838; stroke-width: 1.0;"/><polygon fill="#383838" points="166.324,93.429,174.7468,98.5335,171.284,94.0604,175.7571,90.5976,166.324,93.429" style="stroke: #383838; stroke-width: 1.0;"/><text fill="#000000" font-family="sans-serif" font-size="11" lengthAdjust="spacingAndGlyphs" textLength="47" x="192" y="90.7104">Цифра?</text><path d="M137.971,95.964 C125.677,103.05 107.415,113.835 92,124 C73.3348,136.308 52.715,151.356 38.3429,162.091 " fill="none" style="stroke: #383838; stroke-width: 1.0;"/><polygon fill="#383838" points="34.0923,165.276,43.6932,163.0801,38.0936,162.2777,38.8959,156.678,34.0923,165.276" style="stroke: #383838; stroke-width: 1.0;"/><text fill="#000000" font-family="sans-serif" font-size="11" lengthAdjust="spacingAndGlyphs" textLength="41" x="93" y="135.7104">Точка?</text><path d="M153.471,104.177 C155.275,131.45 156.055,187.74 137,230 C133.479,237.809 127.597,245.061 121.767,250.98 " fill="none" style="stroke: #383838; stroke-width: 1.0;"/><polygon fill="#383838" points="118.165,254.486,127.4044,251.0752,121.7481,250.9987,121.8246,245.3423,118.165,254.486" style="stroke: #383838; stroke-width: 1.0;"/><text fill="#000000" font-family="sans-serif" font-size="11" lengthAdjust="spacingAndGlyphs" textLength="100" x="154" y="180.7104">Буква 'e' или 'E'?</text><path d="M34.324,169.556 C44.2383,167.3 54,169.781 54,177 C54,182.978 47.3055,185.707 39.3738,185.188 " fill="none" style="stroke: #383838; stroke-width: 1.0;"/><polygon fill="#383838" points="34.324,184.444,42.6455,189.7121,39.2707,185.1722,43.8106,181.7974,34.324,184.444" style="stroke: #383838; stroke-width: 1.0;"/><text fill="#000000" font-family="sans-serif" font-size="11" lengthAdjust="spacingAndGlyphs" textLength="47" x="60" y="180.7104">Цифра?</text><path d="M20.5849,194.081 C21.7503,205.218 24.8767,219.815 33,230 C46.1201,246.45 68.7471,256.067 84.9325,261.16 " fill="none" style="stroke: #383838; stroke-width: 1.0;"/><polygon fill="#383838" points="89.731,262.598,82.2578,256.183,84.9414,261.1628,79.9616,263.8464,89.731,262.598" style="stroke: #383838; stroke-width: 1.0;"/><text fill="#000000" font-family="sans-serif" font-size="11" lengthAdjust="spacingAndGlyphs" textLength="100" x="34" y="225.7104">Буква 'e' или 'E'?</text><path d="M89.8568,274.611 C78.9212,280.584 64.5739,290.508 58,304 C53.2093,313.833 56.1685,325.341 60.8747,335.028 " fill="none" style="stroke: #383838; stroke-width: 1.0;"/><polygon fill="#383838" points="63.2991,339.622,62.635,329.7956,60.965,335.2003,55.5602,333.5302,63.2991,339.622" style="stroke: #383838; stroke-width: 1.0;"/><text fill="#000000" font-family="sans-serif" font-size="11" lengthAdjust="spacingAndGlyphs" textLength="122" x="59" y="315.7104">Знак '+',или '-' или ?</text><path d="M118.291,269.755 C137.091,272.916 169.445,281.49 184,304 C198.773,326.848 220.917,309.558 164,410 C159.086,418.672 151.406,426.522 144.234,432.662 " fill="none" style="stroke: #383838; stroke-width: 1.0;"/><polygon fill="#383838" points="140.322,435.892,149.8091,433.2473,144.1779,432.709,144.7163,427.0778,140.322,435.892" style="stroke: #383838; stroke-width: 1.0;"/><text fill="#000000" font-family="sans-serif" font-size="11" lengthAdjust="spacingAndGlyphs" textLength="51" x="199" y="360.7104">Цифра ?</text><path d="M84.3542,374.141 C92.6935,388.53 104.9466,409.673 114.004,425.302 " fill="none" style="stroke: #383838; stroke-width: 1.0;"/><polygon fill="#383838" points="116.705,429.962,115.6527,420.1695,114.1977,425.6361,108.7312,424.1811,116.705,429.962" style="stroke: #383838; stroke-width: 1.0;"/><text fill="#000000" font-family="sans-serif" font-size="11" lengthAdjust="spacingAndGlyphs" textLength="51" x="106" y="405.7104">Цифра ?</text><path d="M121.688,464.291 C119.764,475.2448 119.235,489.5381 126,500 C139.304,520.5754 167.48,529.5077 186.582,533.3048 " fill="none" style="stroke: #383838; stroke-width: 1.0;"/><polygon fill="#383838" points="191.709,534.2451,183.5776,528.6881,186.7909,533.3437,182.1353,536.557,191.709,534.2451" style="stroke: #383838; stroke-width: 1.0;"/><text fill="#000000" font-family="sans-serif" font-size="11" lengthAdjust="spacingAndGlyphs" textLength="141" x="127" y="495.7104">Буквы 'f','F','l','L' или ' '?</text><path d="M140.324,439.556 C150.238,437.3 160,439.781 160,447 C160,452.978 153.306,455.7073 145.374,455.1877 " fill="none" style="stroke: #383838; stroke-width: 1.0;"/><polygon fill="#383838" points="140.324,454.4443,148.6451,459.7129,145.2706,455.1728,149.8108,451.7983,140.324,454.4443" style="stroke: #383838; stroke-width: 1.0;"/><text fill="#000000" font-family="sans-serif" font-size="11" lengthAdjust="spacingAndGlyphs" textLength="47" x="166" y="450.7104">Цифра?</text><path d="M220.042,531.8035 C234.847,526.6654 257.814,516.544 271,500 C285.992,481.1901 286,472.0534 286,448 C286,176 286,176 286,176 C286,121.884 208.699,99.208 171.521,91.431 " fill="none" style="stroke: #383838; stroke-width: 1.0;"/><polygon fill="#383838" points="166.34,90.39,174.375,96.0855,171.2419,91.3755,175.9519,88.2424,166.34,90.39" style="stroke: #383838; stroke-width: 1.0;"/></g>
<g transform="translate(0.000000,17.000000) scale(0.100000,-0.100000)"
fill="#000000" stroke="none">
<path d="M21 157 c-29 -35 -16 -97 20 -97 15 0 19 -5 15 -16 -3 -9 -6 -20 -6
-25 0 -5 -4 -9 -10 -9 -14 0 -12 27 3 33 6 3 2 6 -10 6 -30 1 -31 -35 -3 -44
28 -9 47 9 55 51 3 20 9 42 12 50 3 8 -1 14 -11 14 -9 0 -16 -8 -16 -19 0 -26
-15 -34 -30 -16 -13 16 -6 48 16 70 14 13 13 15 -4 15 -11 0 -25 -6 -31 -13z"/>
<path d="M80 150 c0 -13 5 -20 13 -17 6 2 12 10 12 17 0 7 -6 15 -12 18 -8 2
-13 -5 -13 -18z"/>
<path d="M347 164 c-13 -13 -7 -24 14 -24 11 0 19 5 17 12 -5 14 -22 21 -31
12z"/>
<path d="M103 85 c-9 -40 -8 -45 8 -45 13 0 19 9 21 33 2 24 7 31 21 29 10 -2
17 3 17 13 0 10 -9 15 -28 15 -26 0 -30 -5 -39 -45z"/>
<path d="M175 101 c-24 -48 -13 -59 64 -60 63 -1 69 1 79 25 15 31 15 64 1 64
-6 0 -8 -8 -5 -18 4 -10 -1 -27 -10 -38 -14 -18 -15 -17 -9 19 5 29 3 37 -9
37 -9 0 -18 -13 -22 -35 -3 -19 -10 -35 -14 -35 -4 0 -4 16 0 35 8 35 8 35
-26 35 -27 0 -36 -6 -49 -29z m47 -6 c-5 -28 -22 -44 -22 -21 0 21 11 46 20
46 4 0 5 -11 2 -25z"/>
<path d="M340 116 c0 -7 -3 -28 -6 -45 -6 -26 -3 -31 13 -31 10 0 25 6 32 12
11 10 13 10 7 1 -5 -9 3 -13 28 -13 25 0 36 4 36 15 0 8 -4 15 -10 15 -5 0
-10 -4 -10 -10 0 -5 -5 -10 -11 -10 -6 0 -2 12 9 28 36 51 36 52 -2 52 -25 0
-36 -4 -36 -15 0 -8 5 -15 10 -15 6 0 10 5 10 12 0 6 3 9 6 6 9 -10 -19 -46
-39 -52 -17 -4 -18 -1 -13 30 6 27 4 34 -9 34 -8 0 -15 -6 -15 -14z"/>
<path d="M472 118 c-7 -7 -12 -27 -12 -46 0 -30 2 -33 27 -30 17 2 32 12 39
27 7 13 18 28 26 33 10 8 9 8 -4 4 -12 -3 -18 0 -18 9 0 18 -41 20 -58 3z m29
-51 c-13 -13 -15 11 -4 40 7 16 8 15 11 -6 2 -13 -1 -28 -7 -34z"/>
</g>
</svg>