<?xml version="1.0" encoding="UTF-8" standalone="no"?><svg xmlns="http://www.w3.org/2000/svg" xmlns:xlink="http://www.w3.org/1999/xlink" contentScriptType="application/ecmascript" contentStyleType="text/css" height="292px" preserveAspectRatio="none" style="width:247px;height:292px;" version="1.1" viewBox="0 0 247 292" width="247px" zoomAndPan="magnify"><defs><filter height="300%" id="fojy5mg" width="300%" x="-1" y="-1"><feGaussianBlur result="blurOut" stdDeviation="2.0"/><feColorMatrix in="blurOut" result="blurOut2" type="matrix" values="0 0 0 0 0 0 0 0 0 0 0 0 0 0 0 0 0 0 .4 0"/><feOffset dx="4.0" dy="4.0" in="blurOut2" result="blurOut3"/><feBlend in="SourceGraphic" in2="blurOut3" mode="normal"/></filter></defs><g><ellipse cx="89" cy="18" fill="#000000" filter="url(#fojy5mg)" rx="10" ry="10" style="stroke: none; stroke-width: 1.0;"/><rect fill="#F8F8F8" filter="url(#fojy5mg)" height="33.9688" rx="12.5" ry="12.5" style="stroke: #383838; stroke-width: 1.5;" width="28" x="75" y="70"/><text fill="#000000" font-family="sans-serif" font-size="12" lengthAdjust="spacingAndGlyphs" textLength="8" x="85" y="91.1387">0</text><rect fill="#F8F8F8" filter="url(#fojy5mg)" height="33.9688" rx="12.5" ry="12.5" style="stroke: #383838; stroke-width: 1.5;" width="28" x="6" y="160"/><text fill="#000000" font-family="sans-serif" font-size="12" lengthAdjust="spacingAndGlyphs" textLength="8" x="16" y="181.1387">1</text><rect fill="#F8F8F8" filter="url(#fojy5mg)" height="33.9688" rx="12.5" ry="12.5" style="stroke: #383838; stroke-width: 1.5;" width="28" x="82" y="250"/><text fill="#000000" font-family="sans-serif" font-size="12" lengthAdjust="spacingAndGlyphs" textLength="8" x="92" y="271.1387">2</text><path d="M89,28.036 C89,37.412 89,52.41 89,64.801 " fill="none" style="stroke: #383838; stroke-width: 1.0;"/><polygon fill="#383838" points="89,69.928,93,60.928,89,64.928,85,60.928,89,69.928" style="stroke: #383838; stroke-width: 1.0;"/><path d="M74.8416,90.291 C57.2942,93.972 28.1082,103.046 15,124 C9.3476,133.036 9.9382,144.733 12.2313,154.745 " fill="none" style="stroke: #383838; stroke-width: 1.0;"/><polygon fill="#383838" points="13.5616,159.804,15.1415,150.0827,12.2901,154.9684,7.4045,152.117,13.5616,159.804" style="stroke: #383838; stroke-width: 1.0;"/><text fill="#000000" font-family="sans-serif" font-size="11" lengthAdjust="spacingAndGlyphs" textLength="129" x="16" y="135.7104">Символ '_' или буква?</text><path d="M21.1793,194.4319 C22.6972,205.4487 26.1523,219.7592 34,230 C44.8559,244.1664 63.0021,253.7574 76.8659,259.4542 " fill="none" style="stroke: #383838; stroke-width: 1.0;"/><polygon fill="#383838" points="81.7584,261.378,74.8465,254.3619,77.1052,259.5483,71.9189,261.807,81.7584,261.378" style="stroke: #383838; stroke-width: 1.0;"/><text fill="#000000" font-family="sans-serif" font-size="11" lengthAdjust="spacingAndGlyphs" textLength="110" x="35" y="225.7104">Буква или цифра?</text><path d="M110.324,259.5557 C120.238,257.2998 130,259.7812 130,267 C130,272.978 123.306,275.7073 115.374,275.1877 " fill="none" style="stroke: #383838; stroke-width: 1.0;"/><polygon fill="#383838" points="110.324,274.4443,118.6451,279.7131,115.2706,275.1729,119.8108,271.7985,110.324,274.4443" style="stroke: #383838; stroke-width: 1.0;"/><text fill="#000000" font-family="sans-serif" font-size="11" lengthAdjust="spacingAndGlyphs" textLength="110" x="136" y="270.7104">Буква или цифра?</text><path d="M110.45,260.5423 C122.929,254.9632 140.152,244.978 148,230 C169.865,188.27 171.059,165.082 148,124 C139.526,108.903 121.863,99.388 108.06,93.959 " fill="none" style="stroke: #383838; stroke-width: 1.0;"/><polygon fill="#383838" points="103.1741,92.14,110.2132,99.0285,107.86,93.8843,113.0041,91.5311,103.1741,92.14" style="stroke: #383838; stroke-width: 1.0;"/></g>
<g transform="translate(0.000000,17.000000) scale(0.100000,-0.100000)"
fill="#000000" stroke="none">
<path d="M21 157 c-29 -35 -16 -97 20 -97 15 0 19 -5 15 -16 -3 -9 -6 -20 -6
-25 0 -5 -4 -9 -10 -9 -14 0 -12 27 3 33 6 3 2 6 -10 6 -30 1 -31 -35 -3 -44
28 -9 47 9 55 51 3 20 9 42 12 50 3 8 -1 14 -11 14 -9 0 -16 -8 -16 -19 0 -26
-15 -34 -30 -16 -13 16 -6 48 16 70 14 13 13 15 -4 15 -11 0 -25 -6 -31 -13z"/>
<path d="M80 150 c0 -13 5 -20 13 -17 6 2 12 10 12 17 0 7 -6 15 -12 18 -8 2
-13 -5 -13 -18z"/>
<path d="M347 164 c-13 -13 -7 -24 14 -24 11 0 19 5 17 12 -5 14 -22 21 -31
12z"/>
<path d="M103 85 c-9 -40 -8 -45 8 -45 13 0 19 9 21 33 2 24 7 31 21 29 10 -2
17 3 17 13 0 10 -9 15 -28 15 -26 0 -30 -5 -39 -45z"/>
<path d="M175 101 c-24 -48 -13 -59 64 -60 63 -1 69 1 79 25 15 31 15 64 1 64
-6 0 -8 -8 -5 -18 4 -10 -1 -27 -10 -38 -14 -18 -15 -17 -9 19 5 29 3 37 -9
37 -9 0 -18 -13 -22 -35 -3 -19 -10 -35 -14 -35 -4 0 -4 16 0 35 8 35 8 35
-26 35 -27 0 -36 -6 -49 -29z m47 -6 c-5 -28 -22 -44 -22 -21 0 21 11 46 20
46 4 0 5 -11 2 -25z"/>
<path d="M340 116 c0 -7 -3 -28 -6 -45 -6 -26 -3 -31 13 -31 10 0 25 6 32 12
11 10 13 10 7 1 -5 -9 3 -13 28 -13 25 0 36 4 36 15 0 8 -4 15 -10 15 -5 0
-10 -4 -10 -10 0 -5 -5 -10 -11 -10 -6 0 -2 12 9 28 36 51 36 52 -2 52 -25 0
-36 -4 -36 -15 0 -8 5 -15 10 -15 6 0 10 5 10 12 0 6 3 9 6 6 9 -10 -19 -46
-39 -52 -17 -4 -18 -1 -13 30 6 27 4 34 -9 34 -8 0 -15 -6 -15 -14z"/>
<path d="M472 118 c-7 -7 -12 -27 -12 -46 0 -30 2 -33 27 -30 17 2 32 12 39
27 7 13 18 28 26 33 10 8 9 8 -4 4 -12 -3 -18 0 -18 9 0 18 -41 20 -58 3z m29
-51 c-13 -13 -15 11 -4 40 7 16 8 15 11 -6 2 -13 -1 -28 -7 -34z"/>
</g>
</svg>